HIERARCHY
ROOT Hips
{
  OFFSET 80.0379 26.9372 -1.03879
  CHANNELS 6 Xposition Yposition Zposition Zrotation Xrotation Yrotation
  JOINT LeftHip
  {
    OFFSET 3.43 0 0
    CHANNELS 6 Xposition Yposition Zposition Zrotation Xrotation Yrotation
    JOINT LeftKnee
    {
      OFFSET 0 -18.47 0
      CHANNELS 6 Xposition Yposition Zposition Zrotation Xrotation Yrotation
      JOINT LeftAnkle
      {
        OFFSET 0 -17.95 0
        CHANNELS 6 Xposition Yposition Zposition Zrotation Xrotation Yrotation
        End Site
        {
          OFFSET 0 -3.12 0
        }
      }
    }
  }
  JOINT RightHip
  {
    OFFSET -3.43 0 0
    CHANNELS 6 Xposition Yposition Zposition Zrotation Xrotation Yrotation
    JOINT RightKnee
    {
      OFFSET 0 -18.47 0
      CHANNELS 6 Xposition Yposition Zposition Zrotation Xrotation Yrotation
      JOINT RightAnkle
      {
        OFFSET 0 -17.95 0
        CHANNELS 6 Xposition Yposition Zposition Zrotation Xrotation Yrotation
        End Site
        {
          OFFSET 0 -3.12 0
        }
      }
    }
  }
  JOINT Chest
  {
    OFFSET 0 4.57 0
    CHANNELS 6 Xposition Yposition Zposition Zrotation Xrotation Yrotation
    JOINT CS_BVH
    {
      OFFSET 0 6.57 0
      CHANNELS 6 Xposition Yposition Zposition Zrotation Xrotation Yrotation
      JOINT LeftCollar
      {
        OFFSET 1.06 4.19 1.76
        CHANNELS 6 Xposition Yposition Zposition Zrotation Xrotation Yrotation
        JOINT LeftShoulder
        {
          OFFSET 5.81 0 0
          CHANNELS 6 Xposition Yposition Zposition Zrotation Xrotation Yrotation
          JOINT LeftElbow
          {
            OFFSET 0 -12.08 0
            CHANNELS 6 Xposition Yposition Zposition Zrotation Xrotation Yrotation
            JOINT LeftWrist
            {
              OFFSET 0 -9.82 0
              CHANNELS 6 Xposition Yposition Zposition Zrotation Xrotation Yrotation
              End Site
              {
                OFFSET 0 -7.37 0
              }
            }
          }
        }
      }
      JOINT RightCollar
      {
        OFFSET -1.06 4.19 1.76
        CHANNELS 6 Xposition Yposition Zposition Zrotation Xrotation Yrotation
        JOINT RightShoulder
        {
          OFFSET -6.06 0 0
          CHANNELS 6 Xposition Yposition Zposition Zrotation Xrotation Yrotation
          JOINT RightElbow
          {
            OFFSET 0 -11.08 0
            CHANNELS 6 Xposition Yposition Zposition Zrotation Xrotation Yrotation
            JOINT RightWrist
            {
              OFFSET 0 -9.82 0
              CHANNELS 6 Xposition Yposition Zposition Zrotation Xrotation Yrotation
              End Site
              {
                OFFSET 0 -7.14001 0
              }
            }
          }
        }
      }
      JOINT Neck
      {
        OFFSET 0 4.05 0
        CHANNELS 6 Xposition Yposition Zposition Zrotation Xrotation Yrotation
        JOINT Head
        {
          OFFSET 0 5.19 0
          CHANNELS 6 Xposition Yposition Zposition Zrotation Xrotation Yrotation
          End Site
          {
            OFFSET 0 4.14001 0
          }
        }
      }
    }
  }
}
MOTION
Frames:	8
Frame Time:	0.0333333
6.1009 28.619 -1.1407 9.86579 5.80805 103.294 3.43 0 -1.33227e-015 -9.44289 23.6696 6.10563 -5.82645e-013 -18.47 -6.39488e-014 7.52999 17.2662 -8.5738 -9.58478e-012 -17.95 1.47438e-013 -1.7272 -20.0849 1.03831 -3.43 2.13163e-014 2.22045e-015 2.5594 -17.3123 5.11788 -6.98108e-013 -18.47 0 -8.47296 0.776618 -45.806 -1.01537e-011 -17.95 2.88658e-013 -1.50473 -2.72421 3.30202 1.68754e-014 4.57 -1.46549e-014 -17.0301 5.78935 -1.42887 4.88498e-014 6.57 4.88498e-015 12.0281 -6.05625 -4.19208 1.06 4.19 1.76 1.18471 2.08641 4.05915 5.81 2.84217e-013 5.9508e-014 21.9343 -33.5428 -55.6599 3.20028e-011 -12.08 6.74572e-012 13.4349 -30.2647 0.74707 6.05979e-010 -9.82 1.09738e-010 -1.27748e-010 -4.07772e-009 1.43752e-009 -1.06 4.19 1.76 10.3576 -2.70443 -5.29462 -6.06 -2.62901e-013 -7.99361e-014 -32.8711 -1.20653 17.8329 3.00346e-011 -11.08 -6.05027e-012 10.8516 -11.5663 0.849628 6.22833e-010 -9.82 -1.07956e-010 6.49647e-010 -5.17957e-011 -4.31105e-010 1.1724e-013 4.05 8.88178e-015 6.12785 -11.227 0.0841947 3.94351e-013 5.19 1.9984e-014 -4.99724 3.03692 3.64366 
8.3103 28.1632 -0.956454 10.3372 7.55804 104.665 3.43 0 -1.33227e-015 -8.14243 29.2459 7.50797 -5.82645e-013 -18.47 -6.39488e-014 7.13188 16.3442 -12.3462 -9.58478e-012 -17.95 1.47438e-013 -0.527062 -19.3681 1.20596 -3.43 2.13163e-014 2.22045e-015 2.90111 -18.3299 7.56334 -6.98108e-013 -18.47 0 -13.8868 2.43878 -50.3469 -1.01537e-011 -17.95 2.88658e-013 0.681339 -1.41194 3.32348 1.68754e-014 4.57 -1.46549e-014 -19.2396 6.13618 -1.46161 4.88498e-014 6.57 4.88498e-015 12.9058 -7.42147 -4.45523 1.06 4.19 1.76 1.45541 2.01995 3.83195 5.81 2.84217e-013 5.9508e-014 22.1542 -34.2989 -57.6174 3.20028e-011 -12.08 6.74572e-012 19.1482 -31.13 3.29923 6.05979e-010 -9.82 1.09738e-010 -1.27748e-010 -4.07772e-009 1.43752e-009 -1.06 4.19 1.76 10.6255 -2.76197 -5.66112 -6.06 -2.62901e-013 -7.99361e-014 -34.1685 0.505493 15.2002 3.00346e-011 -11.08 -6.05027e-012 9.70684 -10.5297 1.23433 6.22833e-010 -9.82 -1.07956e-010 6.49647e-010 -5.17957e-011 -4.31105e-010 1.1724e-013 4.05 8.88178e-015 6.45228 -12.0597 -0.0106237 3.94351e-013 5.19 1.9984e-014 -5.17708 4.13431 3.5995 
9.99803 28.1221 -0.950235 9.81204 6.28539 103.805 3.43 0 -1.33227e-015 -5.46557 31.7789 6.58242 -5.82645e-013 -18.47 -6.39488e-014 5.80738 16.8673 -12.7345 -9.58478e-012 -17.95 1.47438e-013 0.686657 -17.7448 1.25236 -3.43 2.13163e-014 2.22045e-015 2.12551 -14.68 9.3062 -6.98108e-013 -18.47 0 -5.149 1.34484 -38.3035 -1.01537e-011 -17.95 2.88658e-013 -2.16621 -2.1358 2.87505 1.68754e-014 4.57 -1.46549e-014 -18.2924 5.50871 -0.722088 4.88498e-014 6.57 4.88498e-015 13.1905 -5.40476 -5.25427 1.06 4.19 1.76 0.860783 2.16187 4.30838 5.81 2.84217e-013 5.9508e-014 22.4425 -34.061 -58.7941 3.20028e-011 -12.08 6.74572e-012 23.4716 -31.4458 5.22424 6.05979e-010 -9.82 1.09738e-010 -1.27748e-010 -4.07772e-009 1.43752e-009 -1.06 4.19 1.76 10.8102 -2.8028 -5.94334 -6.06 -2.62901e-013 -7.99361e-014 -35.7841 0.658951 11.5992 3.00346e-011 -11.08 -6.05027e-012 8.08529 -9.0347 1.77818 6.22833e-010 -9.82 -1.07956e-010 6.49647e-010 -5.17957e-011 -4.31105e-010 1.1724e-013 4.05 8.88178e-015 5.76058 -13.0081 0.32994 3.94351e-013 5.19 1.9984e-014 -4.73095 4.89457 3.35384 
12.1733 27.9962 -0.867116 10.2494 5.5969 102.178 3.43 0 -1.33227e-015 -3.7991 34.6119 7.38074 -5.82645e-013 -18.47 -6.39488e-014 5.41851 19.8056 -13.19 -9.58478e-012 -17.95 1.47438e-013 1.4826 -17.0938 1.27576 -3.43 2.13163e-014 2.22045e-015 1.0701 -12.7419 1.91387 -6.98108e-013 -18.47 0 -0.534469 4.99289 -15.3027 -1.01537e-011 -17.95 2.88658e-013 -3.79551 -4.39533 2.92286 1.68754e-014 4.57 -1.46549e-014 -16.2411 5.04465 -0.221426 4.88498e-014 6.57 4.88498e-015 11.2785 -4.91227 -5.00158 1.06 4.19 1.76 0.254917 2.29661 4.75243 5.81 2.84217e-013 5.9508e-014 22.4405 -31.5988 -59.3315 3.20028e-011 -12.08 6.74572e-012 26.3142 -31.3993 6.50608 6.05979e-010 -9.82 1.09738e-010 -1.27748e-010 -4.07772e-009 1.43752e-009 -1.06 4.19 1.76 11.2351 -2.8955 -6.50697 -6.06 -2.62901e-013 -7.99361e-014 -37.0829 -0.188338 8.77458 3.00346e-011 -11.08 -6.05027e-012 6.73736 -7.7029 1.99144 6.22833e-010 -9.82 -1.07956e-010 6.49647e-010 -5.17957e-011 -4.31105e-010 1.1724e-013 4.05 8.88178e-015 5.61764 -13.592 0.832557 3.94351e-013 5.19 1.9984e-014 -5.08202 5.74922 3.8049 
14.3401 27.9364 -0.746963 10.0149 4.97607 99.1988 3.43 0 -1.33227e-015 -1.8369 30.5283 7.97848 -5.82645e-013 -18.47 -6.39488e-014 1.66418 33.272 -8.42156 -9.58478e-012 -17.95 1.47438e-013 2.61947 -19.9418 1.48533 -3.43 2.13163e-014 2.22045e-015 -4.436 -17.8187 -4.91553 -6.98108e-013 -18.47 0 10.1292 27.3618 6.83542 -1.01537e-011 -17.95 2.88658e-013 -10.3972 -12.924 4.84111 1.68754e-014 4.57 -1.46549e-014 -14.8093 3.45762 1.63671 4.88498e-014 6.57 4.88498e-015 9.23661 -3.90361 -4.49724 1.06 4.19 1.76 -0.895898 2.53659 5.57291 5.81 2.84217e-013 5.9508e-014 21.8839 -28.3971 -58.9724 3.20028e-011 -12.08 6.74572e-012 25.9401 -31.2848 6.37483 6.05979e-010 -9.82 1.09738e-010 -1.27748e-010 -4.07772e-009 1.43752e-009 -1.06 4.19 1.76 11.1588 -2.88342 -6.57462 -6.06 -2.62901e-013 -7.99361e-014 -37.1332 -1.1192 8.6531 3.00346e-011 -11.08 -6.05027e-012 6.65515 -7.5636 1.80151 6.22833e-010 -9.82 -1.07956e-010 6.49647e-010 -5.17957e-011 -4.31105e-010 1.1724e-013 4.05 8.88178e-015 4.69184 -14.3023 1.45526 3.94351e-013 5.19 1.9984e-014 -5.37385 6.44624 4.08686 
16.6643 27.8126 -0.772772 10.7069 5.46452 95.9016 3.43 0 -1.33227e-015 -0.447455 27.4456 10.8754 -5.82645e-013 -18.47 -6.39488e-014 -3.74644 46.6128 -3.66397 -9.58478e-012 -17.95 1.47438e-013 5.20965 -21.2418 1.76824 -3.43 2.13163e-014 2.22045e-015 -6.85147 -15.8625 -6.81068 -6.98108e-013 -18.47 0 15.8225 34.1624 9.86555 -1.01537e-011 -17.95 2.88658e-013 -14.425 -14.4079 5.16634 1.68754e-014 4.57 -1.46549e-014 -15.3501 4.16235 4.33918 4.88498e-014 6.57 4.88498e-015 8.60723 -5.8064 -3.28109 1.06 4.19 1.76 -1.16844 2.6142 6.01531 5.81 2.84217e-013 5.9508e-014 21.1215 -25.4132 -57.8015 3.20028e-011 -12.08 6.74572e-012 21.9859 -31.0002 4.70003 6.05979e-010 -9.82 1.09738e-010 -1.27748e-010 -4.07772e-009 1.43752e-009 -1.06 4.19 1.76 10.5929 -2.76526 -5.8451 -6.06 -2.62901e-013 -7.99361e-014 -35.5895 -1.85227 10.3904 3.00346e-011 -11.08 -6.05027e-012 7.48237 -8.35758 1.57665 6.22833e-010 -9.82 -1.07956e-010 6.49647e-010 -5.17957e-011 -4.31105e-010 1.1724e-013 4.05 8.88178e-015 4.25652 -13.5995 1.52317 3.94351e-013 5.19 1.9984e-014 -4.72362 5.57616 3.83802 
18.85 28.0347 -0.76097 11.4497 5.29387 93.4511 3.43 0 -1.33227e-015 -0.246391 23.3528 14.1483 -5.82645e-013 -18.47 -6.39488e-014 -5.65641 58.2349 1.59943 -9.58478e-012 -17.95 1.47438e-013 6.27382 -21.1721 1.69256 -3.43 2.13163e-014 2.22045e-015 -5.64557 -11.9416 -5.66217 -6.98108e-013 -18.47 0 16.0925 36.2152 9.14031 -1.01537e-011 -17.95 2.88658e-013 -14.9587 -15.6829 5.00815 1.68754e-014 4.57 -1.46549e-014 -13.0923 5.19108 6.44986 4.88498e-014 6.57 4.88498e-015 5.86858 -6.6572 -1.86432 1.06 4.19 1.76 -1.55441 2.68611 6.28038 5.81 2.84217e-013 5.9508e-014 21.2062 -23.7774 -56.4182 3.20028e-011 -12.08 6.74572e-012 15.9573 -30.8333 2.03152 6.05979e-010 -9.82 1.09738e-010 -1.27748e-010 -4.07772e-009 1.43752e-009 -1.06 4.19 1.76 10.5934 -2.76073 -5.58865 -6.06 -2.62901e-013 -7.99361e-014 -33.7746 -3.49908 12.4654 3.00346e-011 -11.08 -6.05027e-012 8.43552 -9.22264 1.17404 6.22833e-010 -9.82 -1.07956e-010 6.49647e-010 -5.17957e-011 -4.31105e-010 1.1724e-013 4.05 8.88178e-015 4.53267 -13.1689 0.754574 3.94351e-013 5.19 1.9984e-014 -4.35855 5.41107 3.12027 
21.0061 28.3079 -0.809332 11.8888 5.28008 91.262 3.43 0 -1.33227e-015 -3.78125 16.3735 20.3865 -5.82645e-013 -18.47 -6.39488e-014 8.42651 67.1953 -1.7629 -9.58478e-012 -17.95 1.47438e-013 2.91243 -21.0895 1.09674 -3.43 2.13163e-014 2.22045e-015 -5.04119 -7.43276 -4.62866 -6.98108e-013 -18.47 0 15.5912 35.8449 8.91329 -1.01537e-011 -17.95 2.88658e-013 -15.0681 -16.8841 5.00278 1.68754e-014 4.57 -1.46549e-014 -10.79 6.76868 7.82194 4.88498e-014 6.57 4.88498e-015 3.11819 -6.93343 -0.340918 1.06 4.19 1.76 -2.1646 2.79126 6.59819 5.81 2.84217e-013 5.9508e-014 21.8087 -22.3455 -53.6153 3.20028e-011 -12.08 6.74572e-012 7.82396 -29.5413 -1.58842 6.05979e-010 -9.82 1.09738e-010 -1.27748e-010 -4.07772e-009 1.43752e-009 -1.06 4.19 1.76 10.5549 -2.75609 -5.39408 -6.06 -2.62901e-013 -7.99361e-014 -31.8377 -6.61589 14.9817 3.00346e-011 -11.08 -6.05027e-012 9.56251 -10.2471 0.748397 6.22833e-010 -9.82 -1.07956e-010 6.49647e-010 -5.17957e-011 -4.31105e-010 1.1724e-013 4.05 8.88178e-015 4.82296 -12.6395 0.177778 3.94351e-013 5.19 1.9984e-014 -4.24352 5.46006 2.68069 
